<?xml version="1.0" standalone="no"?>
<!DOCTYPE svg PUBLIC "-//W3C//DTD SVG 20010904//EN"
 "http://www.w3.org/TR/2001/REC-SVG-20010904/DTD/svg10.dtd">
<svg version="1.0" xmlns="http://www.w3.org/2000/svg"
 width="270.000000pt" height="270.000000pt" viewBox="0 0 270.000000 270.000000"
 preserveAspectRatio="xMidYMid meet">
<metadata>
Created by potrace 1.11, written by Peter Selinger 2001-2013
</metadata>
<g transform="translate(0.000000,270.000000) scale(0.100000,-0.100000)"
fill="#000000" stroke="none">
<path d="M1229 2686 c-2 -2 -29 -6 -59 -10 -75 -8 -203 -40 -286 -71 -379
-142 -671 -444 -798 -827 -128 -384 -81 -787 131 -1131 30 -49 52 -91 49 -94
-3 -3 0 -15 5 -26 9 -15 13 -17 19 -6 12 18 51 -30 44 -53 -4 -12 0 -18 12
-18 9 0 47 -29 85 -64 75 -71 149 -128 221 -170 26 -15 46 -33 45 -39 -1 -7 6
-11 15 -9 9 1 22 -7 28 -19 8 -14 18 -19 32 -16 17 5 62 -9 173 -54 11 -4 49
-14 85 -23 59 -14 83 -18 190 -32 122 -15 326 0 464 36 235 62 431 175 606
350 305 304 440 708 380 1138 -11 80 -55 244 -82 307 -157 360 -423 618 -773
750 -72 27 -191 59 -260 70 -44 7 -320 16 -326 11z"/>
</g>
</svg>
